<svg xmlns="http://www.w3.org/2000/svg" xmlns:xlink="http://www.w3.org/1999/xlink" width="580pt" height="320" viewBox="0 0 580 240"><g id="graph0" class="graph" transform="scale(1 1) rotate(0) translate(4 236)"><title>G</title><polygon fill="#fff" stroke="transparent" points="-4 4 -4 -236 576 -236 576 4 -4 4"/><g id="node1" class="node"><title>i</title><ellipse cx="36" cy="-54" fill="none" stroke="#000" rx="36" ry="36"/><text x="32.5" y="-49" fill="#000" font-family="Times,serif" font-size="25" font-weight="bold" text-anchor="start">i</text></g><g id="node2" class="node"><title>p</title><ellipse cx="187" cy="-54" fill="none" stroke="#000" rx="36" ry="36"/><text x="179.5" y="-49" fill="#000" font-family="Times,serif" font-size="25" font-weight="bold" text-anchor="start">p</text></g><g id="edge1" class="edge"><title>i-&gt;p</title><path fill="none" stroke="#000" d="M72.1683,-54C92.731,-54 118.694,-54 140.729,-54"/><polygon fill="#000" stroke="#000" points="140.865 -57.5 150.865 -54 140.865 -50.5 140.865 -57.5"/><text x="111.5" y="-59.8" fill="#000" font-family="Times,serif" font-size="19" text-anchor="middle">λ,λ;#</text></g><g id="node3" class="node"><title>q</title><ellipse cx="359" cy="-54" fill="none" stroke="#000" rx="54" ry="54"/><text x="351.5" y="-49" fill="#000" font-family="Times,serif" font-size="25" font-weight="bold" text-anchor="start">q</text></g><g id="edge2" class="edge"><title>p-&gt;q</title><path fill="none" stroke="#000" d="M223.0568,-54C243.7434,-54 270.33,-54 294.4967,-54"/><polygon fill="#000" stroke="#000" points="294.682 -57.5 304.681 -54 294.681 -50.5 294.682 -57.5"/><text x="264" y="-59.8" fill="#000" font-family="Times,serif" font-size="19" text-anchor="middle">λ,λ;A</text></g><g id="edge4" class="edge"><title>q-&gt;q</title><path fill="none" stroke="#000" d="M342.1301,-105.4519C343.5837,-117.2981 349.207,-126 359,-126 365.7327,-126 370.4945,-121.887 373.2855,-115.4669"/><polygon fill="#000" stroke="#000" points="376.76 -116.009 375.87 -105.452 369.982 -114.26 376.76 -116.009"/><text x="359" y="-220.8" fill="#000" font-family="Times,serif" font-size="14" text-anchor="middle">λ,A;B</text><text x="359" y="-205.8" fill="#000" font-family="Times,serif" font-size="14" text-anchor="middle">λ,B;aC</text><text x="359" y="-190.8" fill="#000" font-family="Times,serif" font-size="14" text-anchor="middle">λ,C;aCbb</text><text x="359" y="-175.8" fill="#000" font-family="Times,serif" font-size="14" text-anchor="middle">λ,C;bb</text><text x="359" y="-144.8" fill="#000" font-family="Times,serif" font-size="14" text-anchor="middle">a,a;λ</text><text x="359" y="-129.8" fill="#000" font-family="Times,serif" font-size="14" text-anchor="middle">b,b;λ</text></g><g id="node4" class="node"><title>f</title><ellipse cx="532" cy="-54" fill="none" stroke="#000" rx="36" ry="36"/><ellipse cx="532" cy="-54" fill="none" stroke="#000" rx="40" ry="40"/><text x="527.5" y="-49" fill="#000" font-family="Times,serif" font-size="25" font-weight="bold" text-anchor="start">f</text></g><g id="edge3" class="edge"><title>q-&gt;f</title><path fill="none" stroke="#000" d="M413.2636,-54C435.1491,-54 460.2473,-54 481.7142,-54"/><polygon fill="#000" stroke="#000" points="481.931 -57.5 491.931 -54 481.931 -50.5 481.931 -57.5"/><text x="452.5" y="-59.8" fill="#000" font-family="Times,serif" font-size="19" text-anchor="middle">λ,#;λ</text></g></g></svg>