<?xml version="1.0" encoding="UTF-8" standalone="no"?>
<!DOCTYPE svg PUBLIC "-//W3C//DTD SVG 1.1//EN"
 "http://www.w3.org/Graphics/SVG/1.1/DTD/svg11.dtd">
<!-- Generated by graphviz version 2.40.1 (20161225.0304)
 -->
<!-- Title: G Pages: 1 -->
<svg width="635pt" height="300pt"
 viewBox="0.00 0.00 635.00 300.00" xmlns="http://www.w3.org/2000/svg" xmlns:xlink="http://www.w3.org/1999/xlink">
<g id="graph0" class="graph" transform="scale(1 1) rotate(0) translate(4 296)">
<title>G</title>
<polygon fill="#ffffff" stroke="transparent" points="-4,4 -4,-296 631,-296 631,4 -4,4"/>
<!-- i -->
<g id="node1" class="node">
<title>i</title>
<ellipse fill="none" stroke="#000000" cx="36" cy="-54" rx="36" ry="36"/>
<text text-anchor="start" x="32.5" y="-49" font-family="Times,serif" font-weight="bold" font-size="25.00" fill="#000000">i</text>
</g>
<!-- p -->
<g id="node2" class="node">
<title>p</title>
<ellipse fill="none" stroke="#000000" cx="187" cy="-54" rx="36" ry="36"/>
<text text-anchor="start" x="179.5" y="-49" font-family="Times,serif" font-weight="bold" font-size="25.00" fill="#000000">p</text>
</g>
<!-- i&#45;&gt;p -->
<g id="edge1" class="edge">
<title>i&#45;&gt;p</title>
<path fill="none" stroke="#000000" d="M72.1683,-54C92.731,-54 118.694,-54 140.729,-54"/>
<polygon fill="#000000" stroke="#000000" points="140.8655,-57.5001 150.8655,-54 140.8654,-50.5001 140.8655,-57.5001"/>
<text text-anchor="middle" x="111.5" y="-59.8" font-family="Times,serif" font-size="19.00" fill="#000000">λ,λ;#</text>
</g>
<!-- q -->
<g id="node3" class="node">
<title>q</title>
<ellipse fill="none" stroke="#000000" cx="385" cy="-54" rx="54" ry="54"/>
<text text-anchor="start" x="377.5" y="-49" font-family="Times,serif" font-weight="bold" font-size="25.00" fill="#000000">q</text>
</g>
<!-- p&#45;&gt;q -->
<g id="edge2" class="edge">
<title>p&#45;&gt;q</title>
<path fill="none" stroke="#000000" d="M223.3163,-54C250.516,-54 288.4399,-54 320.723,-54"/>
<polygon fill="#000000" stroke="#000000" points="320.9856,-57.5001 330.9856,-54 320.9855,-50.5001 320.9856,-57.5001"/>
<text text-anchor="middle" x="262.5" y="-59.8" font-family="Times,serif" font-size="19.00" fill="#000000">λ,λ;S</text>
</g>
<!-- q&#45;&gt;q -->
<g id="edge4" class="edge">
<title>q&#45;&gt;q</title>
<path fill="none" stroke="#000000" d="M362.326,-103.1322C363.6217,-116.1445 371.1797,-126 385,-126 395.0413,-126 401.7768,-120.7974 405.2064,-112.9613"/>
<polygon fill="#000000" stroke="#000000" points="408.6337,-113.6835 407.674,-103.1322 401.8444,-111.9791 408.6337,-113.6835"/>
<text text-anchor="middle" x="385" y="-280.8" font-family="Times,serif" font-size="14.00" fill="#000000">λ,S;A</text>
<text text-anchor="middle" x="385" y="-265.8" font-family="Times,serif" font-size="14.00" fill="#000000">λ,A;aAa</text>
<text text-anchor="middle" x="385" y="-250.8" font-family="Times,serif" font-size="14.00" fill="#000000">λ,A;B</text>
<text text-anchor="middle" x="385" y="-235.8" font-family="Times,serif" font-size="14.00" fill="#000000">λ,B;bBb</text>
<text text-anchor="middle" x="385" y="-220.8" font-family="Times,serif" font-size="14.00" fill="#000000">λ,B;C</text>
<text text-anchor="middle" x="385" y="-205.8" font-family="Times,serif" font-size="14.00" fill="#000000">λ,C;zC</text>
<text text-anchor="middle" x="385" y="-190.8" font-family="Times,serif" font-size="14.00" fill="#000000">λ,C;z</text>
<text text-anchor="middle" x="385" y="-159.8" font-family="Times,serif" font-size="14.00" fill="#000000">a,a;λ</text>
<text text-anchor="middle" x="385" y="-144.8" font-family="Times,serif" font-size="14.00" fill="#000000">b,b;λ</text>
<text text-anchor="middle" x="385" y="-129.8" font-family="Times,serif" font-size="14.00" fill="#000000">z,z;λ</text>
</g>
<!-- f -->
<g id="node4" class="node">
<title>f</title>
<ellipse fill="none" stroke="#000000" cx="587" cy="-54" rx="36" ry="36"/>
<ellipse fill="none" stroke="#000000" cx="587" cy="-54" rx="40" ry="40"/>
<text text-anchor="start" x="582.5" y="-49" font-family="Times,serif" font-weight="bold" font-size="25.00" fill="#000000">f</text>
</g>
<!-- q&#45;&gt;f -->
<g id="edge3" class="edge">
<title>q&#45;&gt;f</title>
<path fill="none" stroke="#000000" d="M439.1323,-54C469.4487,-54 507.0039,-54 536.6799,-54"/>
<polygon fill="#000000" stroke="#000000" points="536.8234,-57.5001 546.8233,-54 536.8233,-50.5001 536.8234,-57.5001"/>
<text text-anchor="middle" x="507.5" y="-59.8" font-family="Times,serif" font-size="19.00" fill="#000000">λ,#;λ</text>
</g>
</g>
</svg>
