<svg xmlns="http://www.w3.org/2000/svg" xmlns:xlink="http://www.w3.org/1999/xlink" width="650pt" height="420" viewBox="0 0 650 315"><g id="graph0" class="graph" transform="scale(1 1) rotate(0) translate(4 311)"><title>G</title><polygon fill="#fff" stroke="transparent" points="-4 4 -4 -311 646 -311 646 4 -4 4"/><g id="node1" class="node"><title>i</title><ellipse cx="36" cy="-54" fill="none" stroke="#000" rx="36" ry="36"/><text x="32.5" y="-49" fill="#000" font-family="Times,serif" font-size="25" font-weight="bold" text-anchor="start">i</text></g><g id="node2" class="node"><title>p</title><ellipse cx="187" cy="-54" fill="none" stroke="#000" rx="36" ry="36"/><text x="179.5" y="-49" fill="#000" font-family="Times,serif" font-size="25" font-weight="bold" text-anchor="start">p</text></g><g id="edge1" class="edge"><title>i-&gt;p</title><path fill="none" stroke="#000" d="M72.1683,-54C92.731,-54 118.694,-54 140.729,-54"/><polygon fill="#000" stroke="#000" points="140.865 -57.5 150.865 -54 140.865 -50.5 140.865 -57.5"/><text x="111.5" y="-59.8" fill="#000" font-family="Times,serif" font-size="19" text-anchor="middle">λ,λ;#</text></g><g id="node3" class="node"><title>q</title><ellipse cx="392.5" cy="-54" fill="none" stroke="#000" rx="54" ry="54"/><text x="385" y="-49" fill="#000" font-family="Times,serif" font-size="25" font-weight="bold" text-anchor="start">q</text></g><g id="edge2" class="edge"><title>p-&gt;q</title><path fill="none" stroke="#000" d="M223.2662,-54C252.3159,-54 293.7904,-54 328.41,-54"/><polygon fill="#000" stroke="#000" points="328.443 -57.5 338.443 -54 328.443 -50.5 328.443 -57.5"/><text x="262.5" y="-59.8" fill="#000" font-family="Times,serif" font-size="19" text-anchor="middle">λ,λ;S</text></g><g id="edge4" class="edge"><title>q-&gt;q</title><path fill="none" stroke="#000" d="M368.2738,-102.4564C369.4441,-115.8018 377.5195,-126 392.5,-126 403.5013,-126 410.7786,-120.5 414.332,-112.2927"/><polygon fill="#000" stroke="#000" points="417.762 -113.001 416.726 -102.456 410.96 -111.345 417.762 -113.001"/><text x="392.5" y="-295.8" fill="#000" font-family="Times,serif" font-size="14" text-anchor="middle">λ,S;A</text><text x="392.5" y="-280.8" fill="#000" font-family="Times,serif" font-size="14" text-anchor="middle">λ,A;aAa</text><text x="392.5" y="-265.8" fill="#000" font-family="Times,serif" font-size="14" text-anchor="middle">λ,A;B</text><text x="392.5" y="-250.8" fill="#000" font-family="Times,serif" font-size="14" text-anchor="middle">λ,B;bBb</text><text x="392.5" y="-235.8" fill="#000" font-family="Times,serif" font-size="14" text-anchor="middle">λ,B;C</text><text x="392.5" y="-220.8" fill="#000" font-family="Times,serif" font-size="14" text-anchor="middle">λ,C;zC</text><text x="392.5" y="-205.8" fill="#000" font-family="Times,serif" font-size="14" text-anchor="middle">λ,C;$</text><text x="392.5" y="-174.8" fill="#000" font-family="Times,serif" font-size="14" text-anchor="middle">a,a;λ</text><text x="392.5" y="-159.8" fill="#000" font-family="Times,serif" font-size="14" text-anchor="middle">b,b;λ</text><text x="392.5" y="-144.8" fill="#000" font-family="Times,serif" font-size="14" text-anchor="middle">z,z;λ</text><text x="392.5" y="-129.8" fill="#000" font-family="Times,serif" font-size="14" text-anchor="middle">$,$;λ</text></g><g id="node4" class="node"><title>f</title><ellipse cx="602" cy="-54" fill="none" stroke="#000" rx="36" ry="36"/><ellipse cx="602" cy="-54" fill="none" stroke="#000" rx="40" ry="40"/><text x="597.5" y="-49" fill="#000" font-family="Times,serif" font-size="25" font-weight="bold" text-anchor="start">f</text></g><g id="edge3" class="edge"><title>q-&gt;f</title><path fill="none" stroke="#000" d="M446.7239,-54C479.0747,-54 519.8801,-54 551.5409,-54"/><polygon fill="#000" stroke="#000" points="551.902 -57.5 561.902 -54 551.902 -50.5 551.902 -57.5"/><text x="522.5" y="-59.8" fill="#000" font-family="Times,serif" font-size="19" text-anchor="middle">λ,#;λ</text></g></g></svg>