<svg xmlns="http://www.w3.org/2000/svg" xmlns:xlink="http://www.w3.org/1999/xlink" width="608pt" height="360" viewBox="0 0 608 270"><g id="graph0" class="graph" transform="scale(1 1) rotate(0) translate(4 266)"><title>G</title><polygon fill="#fff" stroke="transparent" points="-4 4 -4 -266 604 -266 604 4 -4 4"/><g id="node1" class="node"><title>i</title><ellipse cx="36" cy="-54" fill="none" stroke="#000" rx="36" ry="36"/><text x="32.5" y="-49" fill="#000" font-family="Times,serif" font-size="25" font-weight="bold" text-anchor="start">i</text></g><g id="node2" class="node"><title>p</title><ellipse cx="187" cy="-54" fill="none" stroke="#000" rx="36" ry="36"/><text x="179.5" y="-49" fill="#000" font-family="Times,serif" font-size="25" font-weight="bold" text-anchor="start">p</text></g><g id="edge1" class="edge"><title>i-&gt;p</title><path fill="none" stroke="#000" d="M72.1683,-54C92.731,-54 118.694,-54 140.729,-54"/><polygon fill="#000" stroke="#000" points="140.865 -57.5 150.865 -54 140.865 -50.5 140.865 -57.5"/><text x="111.5" y="-59.8" fill="#000" font-family="Times,serif" font-size="19" text-anchor="middle">λ,λ;#</text></g><g id="node3" class="node"><title>q</title><ellipse cx="373" cy="-54" fill="none" stroke="#000" rx="54" ry="54"/><text x="365.5" y="-49" fill="#000" font-family="Times,serif" font-size="25" font-weight="bold" text-anchor="start">q</text></g><g id="edge2" class="edge"><title>p-&gt;q</title><path fill="none" stroke="#000" d="M223.3042,-54C247.5029,-54 279.9829,-54 308.5037,-54"/><polygon fill="#000" stroke="#000" points="308.81 -57.5 318.81 -54 308.81 -50.5 308.81 -57.5"/><text x="264" y="-59.8" fill="#000" font-family="Times,serif" font-size="19" text-anchor="middle">λ,λ;A</text></g><g id="edge4" class="edge"><title>q-&gt;q</title><path fill="none" stroke="#000" d="M353.4355,-104.4668C354.8848,-116.8125 361.4063,-126 373,-126 381.1519,-126 386.7961,-121.4578 389.9326,-114.4694"/><polygon fill="#000" stroke="#000" points="393.405 -115.028 392.565 -104.467 386.635 -113.247 393.405 -115.028"/><text x="373" y="-250.8" fill="#000" font-family="Times,serif" font-size="14" text-anchor="middle">λ,A;B</text><text x="373" y="-235.8" fill="#000" font-family="Times,serif" font-size="14" text-anchor="middle">λ,B;((B))</text><text x="373" y="-220.8" fill="#000" font-family="Times,serif" font-size="14" text-anchor="middle">λ,B;1</text><text x="373" y="-205.8" fill="#000" font-family="Times,serif" font-size="14" text-anchor="middle">λ,B;0</text><text x="373" y="-174.8" fill="#000" font-family="Times,serif" font-size="14" text-anchor="middle">(,(;λ</text><text x="373" y="-159.8" fill="#000" font-family="Times,serif" font-size="14" text-anchor="middle">),);λ</text><text x="373" y="-144.8" fill="#000" font-family="Times,serif" font-size="14" text-anchor="middle">0,0;λ</text><text x="373" y="-129.8" fill="#000" font-family="Times,serif" font-size="14" text-anchor="middle">1,1;λ</text></g><g id="node4" class="node"><title>f</title><ellipse cx="560" cy="-54" fill="none" stroke="#000" rx="36" ry="36"/><ellipse cx="560" cy="-54" fill="none" stroke="#000" rx="40" ry="40"/><text x="555.5" y="-49" fill="#000" font-family="Times,serif" font-size="25" font-weight="bold" text-anchor="start">f</text></g><g id="edge3" class="edge"><title>q-&gt;f</title><path fill="none" stroke="#000" d="M427.0881,-54C453.1597,-54 484.2353,-54 509.7806,-54"/><polygon fill="#000" stroke="#000" points="509.997 -57.5 519.997 -54 509.997 -50.5 509.997 -57.5"/><text x="480.5" y="-59.8" fill="#000" font-family="Times,serif" font-size="19" text-anchor="middle">λ,#;λ</text></g></g></svg>