<?xml version="1.0" encoding="UTF-8" standalone="no"?>
<!DOCTYPE svg PUBLIC "-//W3C//DTD SVG 1.1//EN"
 "http://www.w3.org/Graphics/SVG/1.1/DTD/svg11.dtd">
<!-- Generated by graphviz version 2.40.1 (20161225.0304)
 -->
<!-- Title: G Pages: 1 -->
<svg width="608pt" height="270pt"
 viewBox="0.00 0.00 608.00 270.00" xmlns="http://www.w3.org/2000/svg" xmlns:xlink="http://www.w3.org/1999/xlink">
<g id="graph0" class="graph" transform="scale(1 1) rotate(0) translate(4 266)">
<title>G</title>
<polygon fill="#ffffff" stroke="transparent" points="-4,4 -4,-266 604,-266 604,4 -4,4"/>
<!-- i -->
<g id="node1" class="node">
<title>i</title>
<ellipse fill="none" stroke="#000000" cx="36" cy="-54" rx="36" ry="36"/>
<text text-anchor="start" x="32.5" y="-49" font-family="Times,serif" font-weight="bold" font-size="25.00" fill="#000000">i</text>
</g>
<!-- p -->
<g id="node2" class="node">
<title>p</title>
<ellipse fill="none" stroke="#000000" cx="187" cy="-54" rx="36" ry="36"/>
<text text-anchor="start" x="179.5" y="-49" font-family="Times,serif" font-weight="bold" font-size="25.00" fill="#000000">p</text>
</g>
<!-- i&#45;&gt;p -->
<g id="edge1" class="edge">
<title>i&#45;&gt;p</title>
<path fill="none" stroke="#000000" d="M72.1683,-54C92.731,-54 118.694,-54 140.729,-54"/>
<polygon fill="#000000" stroke="#000000" points="140.8655,-57.5001 150.8655,-54 140.8654,-50.5001 140.8655,-57.5001"/>
<text text-anchor="middle" x="111.5" y="-59.8" font-family="Times,serif" font-size="19.00" fill="#000000">λ,λ;#</text>
</g>
<!-- q -->
<g id="node3" class="node">
<title>q</title>
<ellipse fill="none" stroke="#000000" cx="373" cy="-54" rx="54" ry="54"/>
<text text-anchor="start" x="365.5" y="-49" font-family="Times,serif" font-weight="bold" font-size="25.00" fill="#000000">q</text>
</g>
<!-- p&#45;&gt;q -->
<g id="edge2" class="edge">
<title>p&#45;&gt;q</title>
<path fill="none" stroke="#000000" d="M223.3042,-54C247.5029,-54 279.9829,-54 308.5037,-54"/>
<polygon fill="#000000" stroke="#000000" points="308.8096,-57.5001 318.8096,-54 308.8096,-50.5001 308.8096,-57.5001"/>
<text text-anchor="middle" x="264" y="-59.8" font-family="Times,serif" font-size="19.00" fill="#000000">λ,λ;A</text>
</g>
<!-- q&#45;&gt;q -->
<g id="edge4" class="edge">
<title>q&#45;&gt;q</title>
<path fill="none" stroke="#000000" d="M353.4355,-104.4668C354.8848,-116.8125 361.4063,-126 373,-126 381.1519,-126 386.7961,-121.4578 389.9326,-114.4694"/>
<polygon fill="#000000" stroke="#000000" points="393.4046,-115.0283 392.5645,-104.4668 386.635,-113.247 393.4046,-115.0283"/>
<text text-anchor="middle" x="373" y="-250.8" font-family="Times,serif" font-size="14.00" fill="#000000">λ,A;B</text>
<text text-anchor="middle" x="373" y="-235.8" font-family="Times,serif" font-size="14.00" fill="#000000">λ,B;((B))</text>
<text text-anchor="middle" x="373" y="-220.8" font-family="Times,serif" font-size="14.00" fill="#000000">λ,B;1</text>
<text text-anchor="middle" x="373" y="-205.8" font-family="Times,serif" font-size="14.00" fill="#000000">λ,B;0</text>
<text text-anchor="middle" x="373" y="-174.8" font-family="Times,serif" font-size="14.00" fill="#000000">(,(;λ</text>
<text text-anchor="middle" x="373" y="-159.8" font-family="Times,serif" font-size="14.00" fill="#000000">),);λ</text>
<text text-anchor="middle" x="373" y="-144.8" font-family="Times,serif" font-size="14.00" fill="#000000">0,0;λ</text>
<text text-anchor="middle" x="373" y="-129.8" font-family="Times,serif" font-size="14.00" fill="#000000">1,1;λ</text>
</g>
<!-- f -->
<g id="node4" class="node">
<title>f</title>
<ellipse fill="none" stroke="#000000" cx="560" cy="-54" rx="36" ry="36"/>
<ellipse fill="none" stroke="#000000" cx="560" cy="-54" rx="40" ry="40"/>
<text text-anchor="start" x="555.5" y="-49" font-family="Times,serif" font-weight="bold" font-size="25.00" fill="#000000">f</text>
</g>
<!-- q&#45;&gt;f -->
<g id="edge3" class="edge">
<title>q&#45;&gt;f</title>
<path fill="none" stroke="#000000" d="M427.0881,-54C453.1597,-54 484.2353,-54 509.7806,-54"/>
<polygon fill="#000000" stroke="#000000" points="509.9968,-57.5001 519.9968,-54 509.9967,-50.5001 509.9968,-57.5001"/>
<text text-anchor="middle" x="480.5" y="-59.8" font-family="Times,serif" font-size="19.00" fill="#000000">λ,#;λ</text>
</g>
</g>
</svg>
