<?xml version="1.0" encoding="UTF-8" standalone="no"?>
<!DOCTYPE svg PUBLIC "-//W3C//DTD SVG 1.1//EN"
 "http://www.w3.org/Graphics/SVG/1.1/DTD/svg11.dtd">
<!-- Generated by graphviz version 2.40.1 (20161225.0304)
 -->
<!-- Title: G Pages: 1 -->
<svg width="968pt" height="630pt"
 viewBox="0.00 0.00 968.00 630.00" xmlns="http://www.w3.org/2000/svg" xmlns:xlink="http://www.w3.org/1999/xlink">
<g id="graph0" class="graph" transform="scale(1 1) rotate(0) translate(4 626)">
<title>G</title>
<polygon fill="#ffffff" stroke="transparent" points="-4,4 -4,-626 964,-626 964,4 -4,4"/>
<!-- i -->
<g id="node1" class="node">
<title>i</title>
<ellipse fill="none" stroke="#000000" cx="36" cy="-54" rx="36" ry="36"/>
<text text-anchor="start" x="32.5" y="-49" font-family="Times,serif" font-weight="bold" font-size="25.00" fill="#000000">i</text>
</g>
<!-- p -->
<g id="node2" class="node">
<title>p</title>
<ellipse fill="none" stroke="#000000" cx="187" cy="-54" rx="36" ry="36"/>
<text text-anchor="start" x="179.5" y="-49" font-family="Times,serif" font-weight="bold" font-size="25.00" fill="#000000">p</text>
</g>
<!-- i&#45;&gt;p -->
<g id="edge1" class="edge">
<title>i&#45;&gt;p</title>
<path fill="none" stroke="#000000" d="M72.1683,-54C92.731,-54 118.694,-54 140.729,-54"/>
<polygon fill="#000000" stroke="#000000" points="140.8655,-57.5001 150.8655,-54 140.8654,-50.5001 140.8655,-57.5001"/>
<text text-anchor="middle" x="111.5" y="-59.8" font-family="Times,serif" font-size="19.00" fill="#000000">λ,λ;#</text>
</g>
<!-- q -->
<g id="node3" class="node">
<title>q</title>
<ellipse fill="none" stroke="#000000" cx="553" cy="-54" rx="54" ry="54"/>
<text text-anchor="start" x="545.5" y="-49" font-family="Times,serif" font-weight="bold" font-size="25.00" fill="#000000">q</text>
</g>
<!-- p&#45;&gt;q -->
<g id="edge2" class="edge">
<title>p&#45;&gt;q</title>
<path fill="none" stroke="#000000" d="M223.0951,-54C284.8842,-54 411.7074,-54 488.8577,-54"/>
<polygon fill="#000000" stroke="#000000" points="488.9386,-57.5001 498.9385,-54 488.9385,-50.5001 488.9386,-57.5001"/>
<text text-anchor="middle" x="264" y="-59.8" font-family="Times,serif" font-size="19.00" fill="#000000">λ,λ;A</text>
</g>
<!-- q&#45;&gt;q -->
<g id="edge4" class="edge">
<title>q&#45;&gt;q</title>
<path fill="none" stroke="#000000" d="M506.6051,-81.7087C488.6581,-103.5696 504.123,-126 553,-126 595.3855,-126 612.6447,-109.132 604.7776,-90.3951"/>
<polygon fill="#000000" stroke="#000000" points="607.6374,-88.3654 599.3949,-81.7087 601.6872,-92.0526 607.6374,-88.3654"/>
<text text-anchor="middle" x="553" y="-610.8" font-family="Times,serif" font-size="14.00" fill="#000000">λ,A;B</text>
<text text-anchor="middle" x="553" y="-595.8" font-family="Times,serif" font-size="14.00" fill="#000000">λ,B;sumar(N)</text>
<text text-anchor="middle" x="553" y="-580.8" font-family="Times,serif" font-size="14.00" fill="#000000">λ,N;NUMERONP</text>
<text text-anchor="middle" x="553" y="-565.8" font-family="Times,serif" font-size="14.00" fill="#000000">λ,NP;:NUMERONP</text>
<text text-anchor="middle" x="553" y="-550.8" font-family="Times,serif" font-size="14.00" fill="#000000">λ,NP;$</text>
<text text-anchor="middle" x="553" y="-535.8" font-family="Times,serif" font-size="14.00" fill="#000000">λ,NUMERO;DNUMERO</text>
<text text-anchor="middle" x="553" y="-520.8" font-family="Times,serif" font-size="14.00" fill="#000000">λ,NUMERO;$</text>
<text text-anchor="middle" x="553" y="-505.8" font-family="Times,serif" font-size="14.00" fill="#000000">λ,D;0</text>
<text text-anchor="middle" x="553" y="-490.8" font-family="Times,serif" font-size="14.00" fill="#000000">λ,D;1</text>
<text text-anchor="middle" x="553" y="-475.8" font-family="Times,serif" font-size="14.00" fill="#000000">λ,D;2</text>
<text text-anchor="middle" x="553" y="-460.8" font-family="Times,serif" font-size="14.00" fill="#000000">λ,D;3</text>
<text text-anchor="middle" x="553" y="-445.8" font-family="Times,serif" font-size="14.00" fill="#000000">λ,D;4</text>
<text text-anchor="middle" x="553" y="-430.8" font-family="Times,serif" font-size="14.00" fill="#000000">λ,D;5</text>
<text text-anchor="middle" x="553" y="-415.8" font-family="Times,serif" font-size="14.00" fill="#000000">λ,D;6</text>
<text text-anchor="middle" x="553" y="-400.8" font-family="Times,serif" font-size="14.00" fill="#000000">λ,D;7</text>
<text text-anchor="middle" x="553" y="-385.8" font-family="Times,serif" font-size="14.00" fill="#000000">λ,D;8</text>
<text text-anchor="middle" x="553" y="-370.8" font-family="Times,serif" font-size="14.00" fill="#000000">λ,D;9</text>
<text text-anchor="middle" x="553" y="-339.8" font-family="Times,serif" font-size="14.00" fill="#000000">sumar,sumar;λ</text>
<text text-anchor="middle" x="553" y="-324.8" font-family="Times,serif" font-size="14.00" fill="#000000">(,(;λ</text>
<text text-anchor="middle" x="553" y="-309.8" font-family="Times,serif" font-size="14.00" fill="#000000">),);λ</text>
<text text-anchor="middle" x="553" y="-294.8" font-family="Times,serif" font-size="14.00" fill="#000000">:,:;λ</text>
<text text-anchor="middle" x="553" y="-279.8" font-family="Times,serif" font-size="14.00" fill="#000000">0,0;λ</text>
<text text-anchor="middle" x="553" y="-264.8" font-family="Times,serif" font-size="14.00" fill="#000000">1,1;λ</text>
<text text-anchor="middle" x="553" y="-249.8" font-family="Times,serif" font-size="14.00" fill="#000000">2,2;λ</text>
<text text-anchor="middle" x="553" y="-234.8" font-family="Times,serif" font-size="14.00" fill="#000000">3,3;λ</text>
<text text-anchor="middle" x="553" y="-219.8" font-family="Times,serif" font-size="14.00" fill="#000000">4,4;λ</text>
<text text-anchor="middle" x="553" y="-204.8" font-family="Times,serif" font-size="14.00" fill="#000000">5,5;λ</text>
<text text-anchor="middle" x="553" y="-189.8" font-family="Times,serif" font-size="14.00" fill="#000000">6,6;λ</text>
<text text-anchor="middle" x="553" y="-174.8" font-family="Times,serif" font-size="14.00" fill="#000000">7,7;λ</text>
<text text-anchor="middle" x="553" y="-159.8" font-family="Times,serif" font-size="14.00" fill="#000000">8,8;λ</text>
<text text-anchor="middle" x="553" y="-144.8" font-family="Times,serif" font-size="14.00" fill="#000000">9,9;λ</text>
<text text-anchor="middle" x="553" y="-129.8" font-family="Times,serif" font-size="14.00" fill="#000000">$,$;λ</text>
</g>
<!-- f -->
<g id="node4" class="node">
<title>f</title>
<ellipse fill="none" stroke="#000000" cx="920" cy="-54" rx="36" ry="36"/>
<ellipse fill="none" stroke="#000000" cx="920" cy="-54" rx="40" ry="40"/>
<text text-anchor="start" x="915.5" y="-49" font-family="Times,serif" font-weight="bold" font-size="25.00" fill="#000000">f</text>
</g>
<!-- q&#45;&gt;f -->
<g id="edge3" class="edge">
<title>q&#45;&gt;f</title>
<path fill="none" stroke="#000000" d="M607.1521,-54C677.8928,-54 800.8153,-54 869.6339,-54"/>
<polygon fill="#000000" stroke="#000000" points="869.7902,-57.5001 879.7901,-54 869.7901,-50.5001 869.7902,-57.5001"/>
<text text-anchor="middle" x="840.5" y="-59.8" font-family="Times,serif" font-size="19.00" fill="#000000">λ,#;λ</text>
</g>
</g>
</svg>
