<svg xmlns="http://www.w3.org/2000/svg" xmlns:xlink="http://www.w3.org/1999/xlink" width="968pt" height="840" viewBox="0 0 968 630"><g id="graph0" class="graph" transform="scale(1 1) rotate(0) translate(4 626)"><title>G</title><polygon fill="#fff" stroke="transparent" points="-4 4 -4 -626 964 -626 964 4 -4 4"/><g id="node1" class="node"><title>i</title><ellipse cx="36" cy="-54" fill="none" stroke="#000" rx="36" ry="36"/><text x="32.5" y="-49" fill="#000" font-family="Times,serif" font-size="25" font-weight="bold" text-anchor="start">i</text></g><g id="node2" class="node"><title>p</title><ellipse cx="187" cy="-54" fill="none" stroke="#000" rx="36" ry="36"/><text x="179.5" y="-49" fill="#000" font-family="Times,serif" font-size="25" font-weight="bold" text-anchor="start">p</text></g><g id="edge1" class="edge"><title>i-&gt;p</title><path fill="none" stroke="#000" d="M72.1683,-54C92.731,-54 118.694,-54 140.729,-54"/><polygon fill="#000" stroke="#000" points="140.865 -57.5 150.865 -54 140.865 -50.5 140.865 -57.5"/><text x="111.5" y="-59.8" fill="#000" font-family="Times,serif" font-size="19" text-anchor="middle">λ,λ;#</text></g><g id="node3" class="node"><title>q</title><ellipse cx="553" cy="-54" fill="none" stroke="#000" rx="54" ry="54"/><text x="545.5" y="-49" fill="#000" font-family="Times,serif" font-size="25" font-weight="bold" text-anchor="start">q</text></g><g id="edge2" class="edge"><title>p-&gt;q</title><path fill="none" stroke="#000" d="M223.0951,-54C284.8842,-54 411.7074,-54 488.8577,-54"/><polygon fill="#000" stroke="#000" points="488.939 -57.5 498.938 -54 488.938 -50.5 488.939 -57.5"/><text x="264" y="-59.8" fill="#000" font-family="Times,serif" font-size="19" text-anchor="middle">λ,λ;A</text></g><g id="edge4" class="edge"><title>q-&gt;q</title><path fill="none" stroke="#000" d="M506.6051,-81.7087C488.6581,-103.5696 504.123,-126 553,-126 595.3855,-126 612.6447,-109.132 604.7776,-90.3951"/><polygon fill="#000" stroke="#000" points="607.637 -88.365 599.395 -81.709 601.687 -92.053 607.637 -88.365"/><text x="553" y="-610.8" fill="#000" font-family="Times,serif" font-size="14" text-anchor="middle">λ,A;B</text><text x="553" y="-595.8" fill="#000" font-family="Times,serif" font-size="14" text-anchor="middle">λ,B;sumar(N)</text><text x="553" y="-580.8" fill="#000" font-family="Times,serif" font-size="14" text-anchor="middle">λ,N;NUMERONP</text><text x="553" y="-565.8" fill="#000" font-family="Times,serif" font-size="14" text-anchor="middle">λ,NP;:NUMERONP</text><text x="553" y="-550.8" fill="#000" font-family="Times,serif" font-size="14" text-anchor="middle">λ,NP;$</text><text x="553" y="-535.8" fill="#000" font-family="Times,serif" font-size="14" text-anchor="middle">λ,NUMERO;DNUMERO</text><text x="553" y="-520.8" fill="#000" font-family="Times,serif" font-size="14" text-anchor="middle">λ,NUMERO;$</text><text x="553" y="-505.8" fill="#000" font-family="Times,serif" font-size="14" text-anchor="middle">λ,D;0</text><text x="553" y="-490.8" fill="#000" font-family="Times,serif" font-size="14" text-anchor="middle">λ,D;1</text><text x="553" y="-475.8" fill="#000" font-family="Times,serif" font-size="14" text-anchor="middle">λ,D;2</text><text x="553" y="-460.8" fill="#000" font-family="Times,serif" font-size="14" text-anchor="middle">λ,D;3</text><text x="553" y="-445.8" fill="#000" font-family="Times,serif" font-size="14" text-anchor="middle">λ,D;4</text><text x="553" y="-430.8" fill="#000" font-family="Times,serif" font-size="14" text-anchor="middle">λ,D;5</text><text x="553" y="-415.8" fill="#000" font-family="Times,serif" font-size="14" text-anchor="middle">λ,D;6</text><text x="553" y="-400.8" fill="#000" font-family="Times,serif" font-size="14" text-anchor="middle">λ,D;7</text><text x="553" y="-385.8" fill="#000" font-family="Times,serif" font-size="14" text-anchor="middle">λ,D;8</text><text x="553" y="-370.8" fill="#000" font-family="Times,serif" font-size="14" text-anchor="middle">λ,D;9</text><text x="553" y="-339.8" fill="#000" font-family="Times,serif" font-size="14" text-anchor="middle">sumar,sumar;λ</text><text x="553" y="-324.8" fill="#000" font-family="Times,serif" font-size="14" text-anchor="middle">(,(;λ</text><text x="553" y="-309.8" fill="#000" font-family="Times,serif" font-size="14" text-anchor="middle">),);λ</text><text x="553" y="-294.8" fill="#000" font-family="Times,serif" font-size="14" text-anchor="middle">:,:;λ</text><text x="553" y="-279.8" fill="#000" font-family="Times,serif" font-size="14" text-anchor="middle">0,0;λ</text><text x="553" y="-264.8" fill="#000" font-family="Times,serif" font-size="14" text-anchor="middle">1,1;λ</text><text x="553" y="-249.8" fill="#000" font-family="Times,serif" font-size="14" text-anchor="middle">2,2;λ</text><text x="553" y="-234.8" fill="#000" font-family="Times,serif" font-size="14" text-anchor="middle">3,3;λ</text><text x="553" y="-219.8" fill="#000" font-family="Times,serif" font-size="14" text-anchor="middle">4,4;λ</text><text x="553" y="-204.8" fill="#000" font-family="Times,serif" font-size="14" text-anchor="middle">5,5;λ</text><text x="553" y="-189.8" fill="#000" font-family="Times,serif" font-size="14" text-anchor="middle">6,6;λ</text><text x="553" y="-174.8" fill="#000" font-family="Times,serif" font-size="14" text-anchor="middle">7,7;λ</text><text x="553" y="-159.8" fill="#000" font-family="Times,serif" font-size="14" text-anchor="middle">8,8;λ</text><text x="553" y="-144.8" fill="#000" font-family="Times,serif" font-size="14" text-anchor="middle">9,9;λ</text><text x="553" y="-129.8" fill="#000" font-family="Times,serif" font-size="14" text-anchor="middle">$,$;λ</text></g><g id="node4" class="node"><title>f</title><ellipse cx="920" cy="-54" fill="none" stroke="#000" rx="36" ry="36"/><ellipse cx="920" cy="-54" fill="none" stroke="#000" rx="40" ry="40"/><text x="915.5" y="-49" fill="#000" font-family="Times,serif" font-size="25" font-weight="bold" text-anchor="start">f</text></g><g id="edge3" class="edge"><title>q-&gt;f</title><path fill="none" stroke="#000" d="M607.1521,-54C677.8928,-54 800.8153,-54 869.6339,-54"/><polygon fill="#000" stroke="#000" points="869.79 -57.5 879.79 -54 869.79 -50.5 869.79 -57.5"/><text x="840.5" y="-59.8" fill="#000" font-family="Times,serif" font-size="19" text-anchor="middle">λ,#;λ</text></g></g></svg>