<?xml version="1.0" encoding="UTF-8" standalone="no"?>
<!DOCTYPE svg PUBLIC "-//W3C//DTD SVG 1.1//EN"
 "http://www.w3.org/Graphics/SVG/1.1/DTD/svg11.dtd">
<!-- Generated by graphviz version 2.40.1 (20161225.0304)
 -->
<!-- Title: G Pages: 1 -->
<svg width="580pt" height="240pt"
 viewBox="0.00 0.00 580.00 240.00" xmlns="http://www.w3.org/2000/svg" xmlns:xlink="http://www.w3.org/1999/xlink">
<g id="graph0" class="graph" transform="scale(1 1) rotate(0) translate(4 236)">
<title>G</title>
<polygon fill="#ffffff" stroke="transparent" points="-4,4 -4,-236 576,-236 576,4 -4,4"/>
<!-- i -->
<g id="node1" class="node">
<title>i</title>
<ellipse fill="none" stroke="#000000" cx="36" cy="-54" rx="36" ry="36"/>
<text text-anchor="start" x="32.5" y="-49" font-family="Times,serif" font-weight="bold" font-size="25.00" fill="#000000">i</text>
</g>
<!-- p -->
<g id="node2" class="node">
<title>p</title>
<ellipse fill="none" stroke="#000000" cx="187" cy="-54" rx="36" ry="36"/>
<text text-anchor="start" x="179.5" y="-49" font-family="Times,serif" font-weight="bold" font-size="25.00" fill="#000000">p</text>
</g>
<!-- i&#45;&gt;p -->
<g id="edge1" class="edge">
<title>i&#45;&gt;p</title>
<path fill="none" stroke="#000000" d="M72.1683,-54C92.731,-54 118.694,-54 140.729,-54"/>
<polygon fill="#000000" stroke="#000000" points="140.8655,-57.5001 150.8655,-54 140.8654,-50.5001 140.8655,-57.5001"/>
<text text-anchor="middle" x="111.5" y="-59.8" font-family="Times,serif" font-size="19.00" fill="#000000">λ,λ;#</text>
</g>
<!-- q -->
<g id="node3" class="node">
<title>q</title>
<ellipse fill="none" stroke="#000000" cx="359" cy="-54" rx="54" ry="54"/>
<text text-anchor="start" x="351.5" y="-49" font-family="Times,serif" font-weight="bold" font-size="25.00" fill="#000000">q</text>
</g>
<!-- p&#45;&gt;q -->
<g id="edge2" class="edge">
<title>p&#45;&gt;q</title>
<path fill="none" stroke="#000000" d="M223.0568,-54C243.7434,-54 270.33,-54 294.4967,-54"/>
<polygon fill="#000000" stroke="#000000" points="294.6815,-57.5001 304.6814,-54 294.6814,-50.5001 294.6815,-57.5001"/>
<text text-anchor="middle" x="264" y="-59.8" font-family="Times,serif" font-size="19.00" fill="#000000">λ,λ;A</text>
</g>
<!-- q&#45;&gt;q -->
<g id="edge4" class="edge">
<title>q&#45;&gt;q</title>
<path fill="none" stroke="#000000" d="M342.1301,-105.4519C343.5837,-117.2981 349.207,-126 359,-126 365.7327,-126 370.4945,-121.887 373.2855,-115.4669"/>
<polygon fill="#000000" stroke="#000000" points="376.7602,-116.0093 375.8699,-105.4519 369.9822,-114.2602 376.7602,-116.0093"/>
<text text-anchor="middle" x="359" y="-220.8" font-family="Times,serif" font-size="14.00" fill="#000000">λ,A;B</text>
<text text-anchor="middle" x="359" y="-205.8" font-family="Times,serif" font-size="14.00" fill="#000000">λ,B;aC</text>
<text text-anchor="middle" x="359" y="-190.8" font-family="Times,serif" font-size="14.00" fill="#000000">λ,C;aCbb</text>
<text text-anchor="middle" x="359" y="-175.8" font-family="Times,serif" font-size="14.00" fill="#000000">λ,C;bb</text>
<text text-anchor="middle" x="359" y="-144.8" font-family="Times,serif" font-size="14.00" fill="#000000">a,a;λ</text>
<text text-anchor="middle" x="359" y="-129.8" font-family="Times,serif" font-size="14.00" fill="#000000">b,b;λ</text>
</g>
<!-- f -->
<g id="node4" class="node">
<title>f</title>
<ellipse fill="none" stroke="#000000" cx="532" cy="-54" rx="36" ry="36"/>
<ellipse fill="none" stroke="#000000" cx="532" cy="-54" rx="40" ry="40"/>
<text text-anchor="start" x="527.5" y="-49" font-family="Times,serif" font-weight="bold" font-size="25.00" fill="#000000">f</text>
</g>
<!-- q&#45;&gt;f -->
<g id="edge3" class="edge">
<title>q&#45;&gt;f</title>
<path fill="none" stroke="#000000" d="M413.2636,-54C435.1491,-54 460.2473,-54 481.7142,-54"/>
<polygon fill="#000000" stroke="#000000" points="481.9308,-57.5001 491.9308,-54 481.9307,-50.5001 481.9308,-57.5001"/>
<text text-anchor="middle" x="452.5" y="-59.8" font-family="Times,serif" font-size="19.00" fill="#000000">λ,#;λ</text>
</g>
</g>
</svg>
