<?xml version="1.0" encoding="UTF-8" standalone="no"?>
<!DOCTYPE svg PUBLIC "-//W3C//DTD SVG 1.1//EN"
 "http://www.w3.org/Graphics/SVG/1.1/DTD/svg11.dtd">
<!-- Generated by graphviz version 2.40.1 (20161225.0304)
 -->
<!-- Title: G Pages: 1 -->
<svg width="650pt" height="315pt"
 viewBox="0.00 0.00 650.00 315.00" xmlns="http://www.w3.org/2000/svg" xmlns:xlink="http://www.w3.org/1999/xlink">
<g id="graph0" class="graph" transform="scale(1 1) rotate(0) translate(4 311)">
<title>G</title>
<polygon fill="#ffffff" stroke="transparent" points="-4,4 -4,-311 646,-311 646,4 -4,4"/>
<!-- i -->
<g id="node1" class="node">
<title>i</title>
<ellipse fill="none" stroke="#000000" cx="36" cy="-54" rx="36" ry="36"/>
<text text-anchor="start" x="32.5" y="-49" font-family="Times,serif" font-weight="bold" font-size="25.00" fill="#000000">i</text>
</g>
<!-- p -->
<g id="node2" class="node">
<title>p</title>
<ellipse fill="none" stroke="#000000" cx="187" cy="-54" rx="36" ry="36"/>
<text text-anchor="start" x="179.5" y="-49" font-family="Times,serif" font-weight="bold" font-size="25.00" fill="#000000">p</text>
</g>
<!-- i&#45;&gt;p -->
<g id="edge1" class="edge">
<title>i&#45;&gt;p</title>
<path fill="none" stroke="#000000" d="M72.1683,-54C92.731,-54 118.694,-54 140.729,-54"/>
<polygon fill="#000000" stroke="#000000" points="140.8655,-57.5001 150.8655,-54 140.8654,-50.5001 140.8655,-57.5001"/>
<text text-anchor="middle" x="111.5" y="-59.8" font-family="Times,serif" font-size="19.00" fill="#000000">λ,λ;#</text>
</g>
<!-- q -->
<g id="node3" class="node">
<title>q</title>
<ellipse fill="none" stroke="#000000" cx="392.5" cy="-54" rx="54" ry="54"/>
<text text-anchor="start" x="385" y="-49" font-family="Times,serif" font-weight="bold" font-size="25.00" fill="#000000">q</text>
</g>
<!-- p&#45;&gt;q -->
<g id="edge2" class="edge">
<title>p&#45;&gt;q</title>
<path fill="none" stroke="#000000" d="M223.2662,-54C252.3159,-54 293.7904,-54 328.41,-54"/>
<polygon fill="#000000" stroke="#000000" points="328.4433,-57.5001 338.4433,-54 328.4432,-50.5001 328.4433,-57.5001"/>
<text text-anchor="middle" x="262.5" y="-59.8" font-family="Times,serif" font-size="19.00" fill="#000000">λ,λ;S</text>
</g>
<!-- q&#45;&gt;q -->
<g id="edge4" class="edge">
<title>q&#45;&gt;q</title>
<path fill="none" stroke="#000000" d="M368.2738,-102.4564C369.4441,-115.8018 377.5195,-126 392.5,-126 403.5013,-126 410.7786,-120.5 414.332,-112.2927"/>
<polygon fill="#000000" stroke="#000000" points="417.7618,-113.0005 416.7262,-102.4564 410.9604,-111.3449 417.7618,-113.0005"/>
<text text-anchor="middle" x="392.5" y="-295.8" font-family="Times,serif" font-size="14.00" fill="#000000">λ,S;A</text>
<text text-anchor="middle" x="392.5" y="-280.8" font-family="Times,serif" font-size="14.00" fill="#000000">λ,A;aAa</text>
<text text-anchor="middle" x="392.5" y="-265.8" font-family="Times,serif" font-size="14.00" fill="#000000">λ,A;B</text>
<text text-anchor="middle" x="392.5" y="-250.8" font-family="Times,serif" font-size="14.00" fill="#000000">λ,B;bBb</text>
<text text-anchor="middle" x="392.5" y="-235.8" font-family="Times,serif" font-size="14.00" fill="#000000">λ,B;C</text>
<text text-anchor="middle" x="392.5" y="-220.8" font-family="Times,serif" font-size="14.00" fill="#000000">λ,C;zC</text>
<text text-anchor="middle" x="392.5" y="-205.8" font-family="Times,serif" font-size="14.00" fill="#000000">λ,C;$</text>
<text text-anchor="middle" x="392.5" y="-174.8" font-family="Times,serif" font-size="14.00" fill="#000000">a,a;λ</text>
<text text-anchor="middle" x="392.5" y="-159.8" font-family="Times,serif" font-size="14.00" fill="#000000">b,b;λ</text>
<text text-anchor="middle" x="392.5" y="-144.8" font-family="Times,serif" font-size="14.00" fill="#000000">z,z;λ</text>
<text text-anchor="middle" x="392.5" y="-129.8" font-family="Times,serif" font-size="14.00" fill="#000000">$,$;λ</text>
</g>
<!-- f -->
<g id="node4" class="node">
<title>f</title>
<ellipse fill="none" stroke="#000000" cx="602" cy="-54" rx="36" ry="36"/>
<ellipse fill="none" stroke="#000000" cx="602" cy="-54" rx="40" ry="40"/>
<text text-anchor="start" x="597.5" y="-49" font-family="Times,serif" font-weight="bold" font-size="25.00" fill="#000000">f</text>
</g>
<!-- q&#45;&gt;f -->
<g id="edge3" class="edge">
<title>q&#45;&gt;f</title>
<path fill="none" stroke="#000000" d="M446.7239,-54C479.0747,-54 519.8801,-54 551.5409,-54"/>
<polygon fill="#000000" stroke="#000000" points="551.9021,-57.5001 561.902,-54 551.902,-50.5001 551.9021,-57.5001"/>
<text text-anchor="middle" x="522.5" y="-59.8" font-family="Times,serif" font-size="19.00" fill="#000000">λ,#;λ</text>
</g>
</g>
</svg>
